<svg xmlns="http://www.w3.org/2000/svg" viewBox="0 0 48 48" fill="none">
  <rect x="2" y="2" width="44" height="44" rx="8" fill="#0a1322" stroke="#4a9eff" stroke-width="1.5" stroke-opacity="0.9"/>
  <defs>
    <radialGradient id="chlG" cx="50%" cy="50%" r="70%">
      <stop offset="0%" stop-color="#a5c8ff" stop-opacity="0.45"/>
      <stop offset="100%" stop-color="#4a9eff" stop-opacity="0"/>
    </radialGradient>
  </defs>
  <rect x="2" y="2" width="44" height="44" rx="8" fill="url(#chlG)"/>
  <!-- Winged diamond -->
  <g fill="#a5c8ff" stroke="#c8e0ff" stroke-width="1" stroke-linejoin="round">
    <!-- Left wing -->
    <path d="M6 22 Q10 18 18 22 Q14 24 10 26 Q6 26 6 22 Z" fill-opacity="0.55"/>
    <path d="M8 26 Q12 24 18 26 Q14 28 10 28 Z" fill-opacity="0.4"/>
    <!-- Right wing (mirror) -->
    <path d="M42 22 Q38 18 30 22 Q34 24 38 26 Q42 26 42 22 Z" fill-opacity="0.55"/>
    <path d="M40 26 Q36 24 30 26 Q34 28 38 28 Z" fill-opacity="0.4"/>
    <!-- Central diamond -->
    <path d="M24 12 L30 24 L24 36 L18 24 Z" fill-opacity="0.7"/>
    <path d="M24 18 L26 24 L24 30 L22 24 Z" fill="#ffffff" fill-opacity="0.8" stroke="none"/>
  </g>
</svg>
